<svg width="96" height="96" viewBox="0 0 96 96" fill="none" xmlns="http://www.w3.org/2000/svg">
<path d="M48 81.6L46.464 79.872C45.504 78.912 23.04 52.416 23.04 36.48C23.04 22.656 34.176 11.52 48 11.52C61.824 11.52 72.96 22.656 72.96 36.48C72.96 52.416 50.496 78.912 49.536 80.064L48 81.6ZM48 15.36C36.288 15.36 26.88 24.768 26.88 36.48C26.88 48.768 43.008 69.504 48 75.648C52.992 69.504 69.12 48.768 69.12 36.48C69.12 24.768 59.712 15.36 48 15.36Z" fill="#B58B61"/>
<path d="M48.0004 46.08C42.6244 46.08 38.4004 41.856 38.4004 36.48C38.4004 31.104 42.6244 26.88 48.0004 26.88C53.3764 26.88 57.6004 31.104 57.6004 36.48C57.6004 41.856 53.3764 46.08 48.0004 46.08ZM48.0004 30.72C44.7364 30.72 42.2404 33.216 42.2404 36.48C42.2404 39.744 44.7364 42.24 48.0004 42.24C51.2644 42.24 53.7604 39.744 53.7604 36.48C53.7604 33.216 51.2644 30.72 48.0004 30.72Z" fill="#B58B61"/>
</svg>
