<svg width="87" height="87" viewBox="0 0 87 87" fill="none" xmlns="http://www.w3.org/2000/svg">
<g clip-path="url(#clip0_2_807)">
<path d="M60.4167 9.66663H26.5833C25.3015 9.66663 24.0721 10.1759 23.1657 11.0823C22.2592 11.9887 21.75 13.2181 21.75 14.5V72.5C21.75 73.7818 22.2592 75.0112 23.1657 75.9176C24.0721 76.8241 25.3015 77.3333 26.5833 77.3333H60.4167C61.6985 77.3333 62.9279 76.8241 63.8344 75.9176C64.7408 75.0112 65.25 73.7818 65.25 72.5V14.5C65.25 13.2181 64.7408 11.9887 63.8344 11.0823C62.9279 10.1759 61.6985 9.66663 60.4167 9.66663ZM45.9167 72.5H41.0833V67.6666H45.9167V72.5ZM26.5833 62.8333V14.5H60.4167V62.8333H26.5833Z" fill="#B58B61"/>
</g>
<defs>
<clipPath id="clip0_2_807">
<rect width="87" height="87" fill="white"/>
</clipPath>
</defs>
</svg>
